<svg width="1363" height="254" viewBox="0 0 1363 254" fill="none" xmlns="http://www.w3.org/2000/svg">
<path d="M1320.63 253.25C1308.26 253.25 1299.28 249.633 1293.68 242.4C1288.31 234.933 1285.63 223.617 1285.63 208.45V80.0001H1260.78V76.5001L1285.98 73.0001L1319.23 15.6001H1324.13V70.5501L1361.58 76.5001V80.0001H1324.13V220.7C1324.13 228.867 1325.29 234.7 1327.63 238.2C1329.96 241.7 1333.11 243.45 1337.08 243.45C1341.28 243.45 1345.24 242.05 1348.98 239.25C1352.94 236.217 1356.91 232.483 1360.88 228.05L1362.28 232.25C1359.94 234.817 1357.14 237.383 1353.88 239.95C1350.84 242.283 1347.46 244.5 1343.73 246.6C1340.23 248.7 1336.49 250.333 1332.53 251.5C1328.79 252.667 1324.83 253.25 1320.63 253.25Z" fill="url(#paint0_linear_406_2)"/>
<path d="M1143.62 67.75C1157.15 67.75 1168.7 69.3833 1178.27 72.65C1188.07 75.6833 1196.12 80.4667 1202.42 87C1208.72 93.5333 1213.27 101.817 1216.07 111.85C1218.87 121.65 1220.27 133.317 1220.27 146.85V235.75C1220.27 239.25 1220.97 241.817 1222.37 243.45C1224 245.083 1226.1 245.9 1228.67 245.9C1231.47 245.9 1234.62 245.083 1238.12 243.45C1241.85 241.817 1245.47 239.717 1248.97 237.15V241C1246.17 243.567 1242.78 245.783 1238.82 247.65C1235.08 249.517 1231.12 250.917 1226.92 251.85C1222.72 252.783 1218.63 253.25 1214.67 253.25C1204.4 253.25 1196.35 250.567 1190.52 245.2C1184.68 239.6 1181.77 230.617 1181.77 218.25C1181.77 213.583 1181.77 210.2 1181.77 208.1C1181.77 205.767 1181.77 204.017 1181.77 202.85C1181.77 201.683 1181.77 200.4 1181.77 199L1178.97 196.9C1174.53 205.767 1169.17 213.7 1162.87 220.7C1156.8 227.7 1149.92 233.65 1142.22 238.55C1134.75 243.217 1127.05 246.833 1119.12 249.4C1111.18 251.967 1103.25 253.25 1095.32 253.25C1086.68 253.25 1078.87 251.733 1071.87 248.7C1064.87 245.9 1059.27 241.7 1055.07 236.1C1050.87 230.267 1048.77 223.15 1048.77 214.75C1048.77 194.917 1060.08 179.867 1082.72 169.6C1105.35 159.1 1138.37 153.85 1181.77 153.85C1181.77 134.017 1180.25 118.383 1177.22 106.95C1174.18 95.2833 1168.93 86.8833 1161.47 81.75C1154 76.6167 1143.73 74.05 1130.67 74.05C1122.03 74.05 1114.33 74.8667 1107.57 76.5C1101.03 77.9 1095.9 79.65 1092.17 81.75C1088.67 83.85 1086.92 85.7167 1086.92 87.35C1086.92 88.5167 1087.97 89.8 1090.07 91.2C1092.4 92.3667 1096.48 94.1167 1102.32 96.45C1113.05 100.65 1118.42 106.6 1118.42 114.3C1118.42 121.3 1115.38 126.667 1109.32 130.4C1103.25 133.9 1095.9 135.65 1087.27 135.65C1078.87 135.65 1071.63 133.783 1065.57 130.05C1059.73 126.317 1056.82 120.95 1056.82 113.95C1056.82 108.35 1059.15 102.867 1063.82 97.5C1068.72 91.9 1075.13 86.8833 1083.07 82.45C1091.23 78.0167 1100.45 74.5167 1110.72 71.95C1121.22 69.15 1132.18 67.75 1143.62 67.75ZM1181.77 158.05C1159.6 158.05 1141.28 160.5 1126.82 165.4C1112.35 170.067 1101.62 176.483 1094.62 184.65C1087.62 192.817 1084.12 201.917 1084.12 211.95C1084.12 218.017 1085.28 223.033 1087.62 227C1090.18 230.733 1093.57 233.533 1097.77 235.4C1101.97 237.267 1106.75 238.2 1112.12 238.2C1117.95 238.2 1124.13 237.15 1130.67 235.05C1137.43 232.717 1144.08 229.217 1150.62 224.55C1157.15 219.883 1163.1 214.05 1168.47 207.05C1174.07 199.817 1178.5 191.3 1181.77 181.5V158.05Z" fill="url(#paint1_linear_406_2)"/>
<path d="M691.256 248V244.5L710.506 240.3V85.95H689.156V82.1L749.006 70.2V125.15L751.806 127.6C757.172 116.167 763.589 105.9 771.056 96.8C778.522 87.7 786.806 80.5833 795.906 75.45C805.239 70.3167 815.156 67.75 825.656 67.75C834.056 67.75 841.406 69.0333 847.706 71.6C854.006 74.1667 859.256 78.0167 863.456 83.15C867.656 88.05 870.689 94.2333 872.556 101.7C874.656 109.167 875.706 117.8 875.706 127.6V240.3L895.656 244.5V248H817.256V244.5L837.206 240.3V124.1C837.206 110.1 834.756 99.6 829.856 92.6C825.189 85.6 818.072 82.1 808.506 82.1C802.906 82.1 797.189 84.0833 791.356 88.05C785.756 91.7833 780.272 96.8 774.906 103.1C769.539 109.4 764.639 116.167 760.206 123.4C756.006 130.633 752.272 137.633 749.006 144.4V240.3L768.956 244.5V248H691.256ZM943.956 248V244.5L963.906 240.3V124.1C963.906 110.1 961.456 99.6 956.556 92.6C951.656 85.6 944.539 82.1 935.206 82.1C929.372 82.1 923.539 84.0833 917.706 88.05C912.106 91.7833 906.622 96.8 901.256 103.1C896.122 109.4 891.339 116.167 886.906 123.4C882.472 130.633 878.739 137.633 875.706 144.4V125.15L878.506 127.6C883.872 116.167 890.172 105.9 897.406 96.8C904.872 87.7 913.272 80.5833 922.606 75.45C931.939 70.3167 941.739 67.75 952.006 67.75C961.339 67.75 969.156 69.2667 975.456 72.3C981.989 75.1 987.122 79.1834 990.856 84.55C994.822 89.9167 997.739 96.3333 999.606 103.8C1001.47 111.267 1002.41 119.783 1002.41 129.35V240.3L1023.76 244.5V248H943.956Z" fill="url(#paint2_linear_406_2)"/>
<path d="M579.559 253.25C569.059 253.25 559.143 252.317 549.809 250.45C540.709 248.583 532.543 245.783 525.309 242.05C518.309 238.317 512.826 233.883 508.859 228.75C504.893 223.617 502.909 217.9 502.909 211.6C502.909 206.933 504.193 203.083 506.759 200.05C509.559 196.783 513.059 194.333 517.259 192.7C521.459 191.067 525.893 190.25 530.559 190.25C535.226 190.25 539.659 191.067 543.859 192.7C548.059 194.1 551.443 196.2 554.009 199C556.576 201.8 557.859 205.183 557.859 209.15C557.859 212.417 557.043 215.333 555.409 217.9C554.009 220.467 551.793 222.917 548.759 225.25C545.026 227.817 542.459 229.917 541.059 231.55C539.659 233.183 538.959 234.933 538.959 236.8C538.959 238.667 540.593 240.533 543.859 242.4C547.126 244.267 551.676 245.9 557.509 247.3C563.576 248.467 570.343 249.05 577.809 249.05C588.309 249.05 597.526 247.767 605.459 245.2C613.393 242.4 619.576 238.433 624.009 233.3C628.676 228.167 631.009 221.633 631.009 213.7C631.009 207.633 629.143 202.15 625.409 197.25C621.676 192.35 615.493 187.683 606.859 183.25C598.226 178.817 586.443 174.267 571.509 169.6C554.943 164 541.759 158.4 531.959 152.8C522.393 147.2 515.509 141.25 511.309 134.95C507.343 128.65 505.359 121.767 505.359 114.3C505.359 100.067 512.359 88.75 526.359 80.35C540.593 71.95 559.726 67.75 583.759 67.75C596.826 67.75 608.843 69.5 619.809 73C630.776 76.5 639.643 81.4 646.409 87.7C653.176 93.7667 656.559 101 656.559 109.4C656.559 113.833 655.276 117.567 652.709 120.6C650.142 123.4 646.759 125.5 642.559 126.9C638.593 128.3 634.393 129 629.959 129C626.459 129 622.959 128.65 619.459 127.95C616.193 127.017 613.159 125.85 610.359 124.45C607.793 122.817 605.693 120.833 604.059 118.5C602.426 115.933 601.609 113.017 601.609 109.75C601.609 103.45 605.109 97.9667 612.109 93.3C615.843 90.9667 618.409 88.9833 619.809 87.35C621.209 85.7167 621.909 84.2 621.909 82.8C621.909 81.6333 620.976 80.35 619.109 78.95C617.243 77.55 614.559 76.3833 611.059 75.45C607.793 74.2833 604.059 73.4667 599.859 73C595.659 72.3 591.109 71.95 586.209 71.95C575.709 71.95 566.376 73.1167 558.209 75.45C550.043 77.7833 543.626 81.2833 538.959 85.95C534.292 90.3833 531.959 95.8667 531.959 102.4C531.959 108.233 534.176 113.833 538.609 119.2C543.043 124.333 549.576 129.117 558.209 133.55C566.843 137.75 577.459 141.95 590.059 146.15C607.559 152.217 621.326 157.933 631.359 163.3C641.626 168.667 648.976 174.267 653.409 180.1C657.843 185.7 660.059 192.233 660.059 199.7C660.059 208.333 657.959 216.033 653.759 222.8C649.559 229.567 643.843 235.167 636.609 239.6C629.376 244.033 620.859 247.417 611.059 249.75C601.493 252.083 590.993 253.25 579.559 253.25Z" fill="url(#paint3_linear_406_2)"/>
<path d="M375.6 67.75C389.133 67.75 400.683 69.3833 410.25 72.65C420.05 75.6833 428.1 80.4667 434.4 87C440.7 93.5333 445.25 101.817 448.05 111.85C450.85 121.65 452.25 133.317 452.25 146.85V235.75C452.25 239.25 452.95 241.817 454.35 243.45C455.983 245.083 458.083 245.9 460.65 245.9C463.45 245.9 466.6 245.083 470.1 243.45C473.833 241.817 477.45 239.717 480.95 237.15V241C478.15 243.567 474.766 245.783 470.8 247.65C467.066 249.517 463.1 250.917 458.9 251.85C454.7 252.783 450.616 253.25 446.65 253.25C436.383 253.25 428.333 250.567 422.5 245.2C416.666 239.6 413.75 230.617 413.75 218.25C413.75 213.583 413.75 210.2 413.75 208.1C413.75 205.767 413.75 204.017 413.75 202.85C413.75 201.683 413.75 200.4 413.75 199L410.95 196.9C406.516 205.767 401.15 213.7 394.85 220.7C388.783 227.7 381.9 233.65 374.2 238.55C366.733 243.217 359.033 246.833 351.1 249.4C343.166 251.967 335.233 253.25 327.3 253.25C318.666 253.25 310.85 251.733 303.85 248.7C296.85 245.9 291.25 241.7 287.05 236.1C282.85 230.267 280.75 223.15 280.75 214.75C280.75 194.917 292.066 179.867 314.7 169.6C337.333 159.1 370.35 153.85 413.75 153.85C413.75 134.017 412.233 118.383 409.2 106.95C406.166 95.2833 400.916 86.8833 393.45 81.75C385.983 76.6167 375.716 74.05 362.65 74.05C354.016 74.05 346.316 74.8667 339.55 76.5C333.016 77.9 327.883 79.65 324.15 81.75C320.65 83.85 318.9 85.7167 318.9 87.35C318.9 88.5167 319.95 89.8 322.05 91.2C324.383 92.3667 328.466 94.1167 334.3 96.45C345.033 100.65 350.4 106.6 350.4 114.3C350.4 121.3 347.366 126.667 341.3 130.4C335.233 133.9 327.883 135.65 319.25 135.65C310.85 135.65 303.616 133.783 297.55 130.05C291.716 126.317 288.8 120.95 288.8 113.95C288.8 108.35 291.133 102.867 295.8 97.5C300.7 91.9 307.116 86.8833 315.05 82.45C323.216 78.0167 332.433 74.5167 342.7 71.95C353.2 69.15 364.166 67.75 375.6 67.75ZM413.75 158.05C391.583 158.05 373.266 160.5 358.8 165.4C344.333 170.067 333.6 176.483 326.6 184.65C319.6 192.817 316.1 201.917 316.1 211.95C316.1 218.017 317.266 223.033 319.6 227C322.166 230.733 325.55 233.533 329.75 235.4C333.95 237.267 338.733 238.2 344.1 238.2C349.933 238.2 356.116 237.15 362.65 235.05C369.416 232.717 376.066 229.217 382.6 224.55C389.133 219.883 395.083 214.05 400.45 207.05C406.05 199.817 410.483 191.3 413.75 181.5V158.05Z" fill="url(#paint4_linear_406_2)"/>
<path d="M246.6 0.199951V3.69995L225.25 8.24993V239.95L246.6 244.5V248H165.05V244.5L185 239.95V8.24993L165.05 3.69995V0.199951H246.6ZM82.4499 0.199951V3.69995L62.4999 8.24993V239.95L82.4499 244.5V248H0.899902V244.5L22.2499 239.95V8.24993L0.899902 3.69995V0.199951H82.4499ZM187.45 124.45V132.15H59.6999V128.65L187.45 124.45Z" fill="url(#paint5_linear_406_2)"/>
<defs>
<linearGradient id="paint0_linear_406_2" x1="476.357" y1="366.31" x2="476.357" y2="-39.9479" gradientUnits="userSpaceOnUse">
<stop stop-color="#F0F0F0"/>
<stop offset="1" stop-color="white"/>
</linearGradient>
<linearGradient id="paint1_linear_406_2" x1="476.357" y1="366.31" x2="476.357" y2="-39.9479" gradientUnits="userSpaceOnUse">
<stop stop-color="#F0F0F0"/>
<stop offset="1" stop-color="white"/>
</linearGradient>
<linearGradient id="paint2_linear_406_2" x1="476.357" y1="366.31" x2="476.357" y2="-39.9479" gradientUnits="userSpaceOnUse">
<stop stop-color="#F0F0F0"/>
<stop offset="1" stop-color="white"/>
</linearGradient>
<linearGradient id="paint3_linear_406_2" x1="476.357" y1="366.31" x2="476.357" y2="-39.9479" gradientUnits="userSpaceOnUse">
<stop stop-color="#F0F0F0"/>
<stop offset="1" stop-color="white"/>
</linearGradient>
<linearGradient id="paint4_linear_406_2" x1="476.357" y1="366.31" x2="476.357" y2="-39.9479" gradientUnits="userSpaceOnUse">
<stop stop-color="#F0F0F0"/>
<stop offset="1" stop-color="white"/>
</linearGradient>
<linearGradient id="paint5_linear_406_2" x1="476.357" y1="366.31" x2="476.357" y2="-39.9479" gradientUnits="userSpaceOnUse">
<stop stop-color="#F0F0F0"/>
<stop offset="1" stop-color="white"/>
</linearGradient>
</defs>
</svg>
