<svg width="30" height="30" viewBox="0 0 30 30" fill="none" xmlns="http://www.w3.org/2000/svg">
<g clip-path="url(#clip0_431_2)">
<mask id="mask0_431_2" style="mask-type:luminance" maskUnits="userSpaceOnUse" x="0" y="0" width="30" height="30">
<path d="M30 0H0V30H30V0Z" fill="white"/>
</mask>
<g mask="url(#mask0_431_2)">
<path d="M26.875 5H15C14.9329 5 14.8663 5.01055 14.8025 5.03123L14.6525 5.08121C14.3249 5.1902 14.1478 5.54404 14.2567 5.87152C14.2574 5.87352 14.2581 5.87545 14.2587 5.87744L20.5412 24.2362L16.4037 28.9637C16.1766 29.2237 16.2032 29.6185 16.4631 29.8456C16.5771 29.9453 16.7235 30.0001 16.8749 30H26.875C28.6009 30 30 28.6009 30 26.875V8.12504C30 6.3991 28.6009 5 26.875 5Z" fill="#0C51B8"/>
<path d="M21.8187 24.1163C21.7173 23.8933 21.495 23.7501 21.25 23.75H15C14.6548 23.75 14.375 24.0298 14.375 24.375C14.375 24.4501 14.3885 24.5247 14.415 24.595L16.29 29.595C16.3674 29.8009 16.5474 29.9509 16.7638 29.99C16.8005 29.9963 16.8377 29.9997 16.875 30C17.0552 29.9998 17.2265 29.9219 17.345 29.7863L21.72 24.7863C21.8816 24.6017 21.9202 24.3396 21.8187 24.1163Z" fill="#5297FF"/>
<path d="M25.8661 21.9584C25.6018 21.9584 25.3661 21.7923 25.2773 21.5434L22.741 14.4408L20.2048 21.5434C20.0757 21.8635 19.7116 22.0184 19.3914 21.8893C19.0894 21.7676 18.9315 21.4342 19.0285 21.1234L22.1535 12.3734C22.3064 12.0486 22.6936 11.9092 23.0184 12.062C23.1552 12.1264 23.2653 12.2365 23.3298 12.3734L26.4548 21.1234C26.5712 21.4475 26.4035 21.8046 26.0798 21.9221C26.0111 21.9464 25.9388 21.9587 25.8661 21.9584Z" fill="#FAFAFA"/>
<path d="M23.991 18.2084H21.491C21.1458 18.2084 20.866 17.9286 20.866 17.5834C20.866 17.2382 21.1458 16.9584 21.491 16.9584H23.991C24.3362 16.9584 24.6161 17.2382 24.6161 17.5834C24.616 17.9286 24.3362 18.2084 23.991 18.2084Z" fill="#FAFAFA"/>
<path d="M21.8412 24.1725L13.7163 0.42252C13.6297 0.169805 13.3921 0 13.125 0H3.12498C1.3991 0 0 1.3991 0 3.12498V21.875C0 23.6009 1.3991 25 3.12498 25H21.25C21.5951 25 21.8749 24.7201 21.8749 24.3749C21.875 24.3061 21.8636 24.2377 21.8412 24.1725Z" fill="#2B7FFF"/>
<path d="M12.396 10.852H8.496V13.168C8.832 12.868 9.312 12.664 9.9 12.664C11.04 12.664 11.712 13.396 11.712 14.584C11.712 15.424 11.412 16.18 10.704 16.96L9.864 16.432C10.392 15.892 10.752 15.304 10.752 14.572C10.752 13.876 10.404 13.504 9.792 13.504C9.288 13.504 8.796 13.852 8.496 14.392V17.464H7.524V15.424C7.092 15.808 6.516 16.048 5.796 16.048C4.572 16.048 3.552 15.352 3.552 13.972C3.552 12.664 4.464 11.896 6.024 11.896C6.432 11.896 6.804 11.944 7.104 12.016L7.02 12.892C6.744 12.82 6.408 12.772 6.048 12.772C5.064 12.772 4.524 13.204 4.524 14.008C4.524 14.8 5.076 15.184 5.796 15.184C6.528 15.184 7.164 14.776 7.524 14.26V10.852H3V10H12.396V10.852Z" fill="white"/>
</g>
</g>
<defs>
<clipPath id="clip0_431_2">
<rect width="30" height="30" fill="white"/>
</clipPath>
</defs>
</svg>
