<svg width="40" height="32" viewBox="0 0 40 32" fill="none" xmlns="http://www.w3.org/2000/svg">
<path fill-rule="evenodd" clip-rule="evenodd" d="M8.30814 0.0678711C6.02576 0.0678711 4.33695 2.0655 4.41254 4.23194C4.48508 6.3133 4.39085 9.00889 3.7122 11.2072C3.03153 13.4119 1.88034 14.8085 0 14.9879V17.0123C1.88034 17.1916 3.03153 18.5882 3.7122 20.793C4.39085 22.9913 4.48508 25.6869 4.41254 27.7682C4.33695 29.9343 6.02576 31.9323 8.30847 31.9323H31.6949C33.9773 31.9323 35.6658 29.9347 35.5902 27.7682C35.5176 25.6869 35.6119 22.9913 36.2905 20.793C36.9715 18.5882 38.1197 17.1916 40 17.0123V14.9879C38.1197 14.8085 36.9715 13.4119 36.2905 11.2072C35.6119 9.00923 35.5176 6.3133 35.5902 4.23194C35.6658 2.06584 33.9773 0.0678711 31.6949 0.0678711H8.3078H8.30814ZM27.1186 19.6824C27.1186 22.6655 24.8936 24.4747 21.201 24.4747H14.9153C14.7354 24.4747 14.563 24.4032 14.4359 24.2761C14.3087 24.1489 14.2373 23.9765 14.2373 23.7967V8.20346C14.2373 8.02366 14.3087 7.85121 14.4359 7.72407C14.563 7.59693 14.7354 7.5255 14.9153 7.5255H21.1651C24.2441 7.5255 26.2647 9.19329 26.2647 11.754C26.2647 13.5513 24.9054 15.1604 23.1736 15.4421V15.536C25.5312 15.7947 27.1186 17.4272 27.1186 19.6824ZM20.5156 9.67465H16.9315V14.737H19.9502C22.2837 14.737 23.5705 13.7974 23.5705 12.1177C23.5705 10.5438 22.4641 9.67465 20.5156 9.67465ZM16.9315 16.7458V22.3248H20.6475C23.0769 22.3248 24.3641 21.3499 24.3641 19.5177C24.3641 17.6852 23.041 16.7455 20.4912 16.7455L16.9315 16.7458Z" fill="#722FF9"/>
</svg>
