<svg width="256" height="291" viewBox="0 0 256 291" fill="none" xmlns="http://www.w3.org/2000/svg">
<path d="M127.844 290.088L23.6621 261.166L0.445068 0.766113H255.555L232.314 261.126L127.844 290.088Z" fill="#264DE4"/>
<path d="M212.417 244.547L232.277 22.0571H128V267.95L212.417 244.547Z" fill="#2965F1"/>
<path d="M53.669 118.636L56.531 150.573H128V118.636H53.669ZM47.917 53.9951L50.82 85.9321H128V53.9951H47.917ZM128 201.58L127.86 201.617L92.292 192.013L90.018 166.542H57.958L62.432 216.688L127.853 234.848L128 234.808V201.58Z" fill="#EBEBEB"/>
<path d="M202.127 118.636L207.892 53.9951H127.89V85.9321H172.892L169.986 118.636H127.89V150.573H167.217L163.509 191.993L127.889 201.607V234.833L193.362 216.688L193.842 211.292L201.348 127.212L202.127 118.636Z" fill="white"/>
</svg>
